<?xml version="1.0" encoding="UTF-8" standalone="no"?>
<svg
   xmlns:dc="http://purl.org/dc/elements/1.1/"
   xmlns:cc="http://creativecommons.org/ns#"
   xmlns:rdf="http://www.w3.org/1999/02/22-rdf-syntax-ns#"
   xmlns:svg="http://www.w3.org/2000/svg"
   xmlns="http://www.w3.org/2000/svg"
   xmlns:sodipodi="http://sodipodi.sourceforge.net/DTD/sodipodi-0.dtd"
   xmlns:inkscape="http://www.inkscape.org/namespaces/inkscape"
   width="32"
   height="32"
   viewBox="0 0 210 297"
   version="1.1"
   id="svg8"
   inkscape:version="1.0.2 (e86c870879, 2021-01-15)"
   sodipodi:docname="logo_32.svg"
   inkscape:export-filename="/home/user/Документы/Учёба/КГ/ФЭП/img/logo_32.png"
   inkscape:export-xdpi="96"
   inkscape:export-ydpi="96">
  <defs
     id="defs2">
    <inkscape:path-effect
       effect="powerstroke"
       id="path-effect883"
       is_visible="true"
       lpeversion="1"
       offset_points="0,2.32031"
       sort_points="true"
       interpolator_type="CubicBezierJohan"
       interpolator_beta="0.2"
       start_linecap_type="zerowidth"
       linejoin_type="extrp_arc"
       miter_limit="4"
       scale_width="1"
       end_linecap_type="zerowidth" />
    <inkscape:path-effect
       effect="bspline"
       id="path-effect881"
       is_visible="true"
       lpeversion="1"
       weight="33.333333"
       steps="2"
       helper_size="0"
       apply_no_weight="true"
       apply_with_weight="true"
       only_selected="false" />
    <inkscape:path-effect
       effect="powerstroke"
       id="path-effect877"
       is_visible="true"
       lpeversion="1"
       offset_points="0,2.32031"
       sort_points="true"
       interpolator_type="CubicBezierJohan"
       interpolator_beta="0.2"
       start_linecap_type="zerowidth"
       linejoin_type="extrp_arc"
       miter_limit="4"
       scale_width="1"
       end_linecap_type="zerowidth" />
    <inkscape:path-effect
       effect="bspline"
       id="path-effect875"
       is_visible="true"
       lpeversion="1"
       weight="33.333333"
       steps="2"
       helper_size="0"
       apply_no_weight="true"
       apply_with_weight="true"
       only_selected="false" />
    <inkscape:path-effect
       effect="powerstroke"
       id="path-effect871"
       is_visible="true"
       lpeversion="1"
       offset_points="0,2.32031"
       sort_points="true"
       interpolator_type="CubicBezierJohan"
       interpolator_beta="0.2"
       start_linecap_type="zerowidth"
       linejoin_type="extrp_arc"
       miter_limit="4"
       scale_width="1"
       end_linecap_type="zerowidth" />
    <inkscape:path-effect
       effect="bspline"
       id="path-effect869"
       is_visible="true"
       lpeversion="1"
       weight="33.333333"
       steps="2"
       helper_size="0"
       apply_no_weight="true"
       apply_with_weight="true"
       only_selected="false" />
    <inkscape:path-effect
       effect="powerstroke"
       id="path-effect861"
       is_visible="true"
       lpeversion="1"
       offset_points="0,2.32031"
       sort_points="true"
       interpolator_type="CubicBezierJohan"
       interpolator_beta="0.2"
       start_linecap_type="zerowidth"
       linejoin_type="extrp_arc"
       miter_limit="4"
       scale_width="1"
       end_linecap_type="zerowidth" />
    <inkscape:path-effect
       effect="bspline"
       id="path-effect859"
       is_visible="true"
       lpeversion="1"
       weight="33.333333"
       steps="2"
       helper_size="0"
       apply_no_weight="true"
       apply_with_weight="true"
       only_selected="false" />
    <inkscape:path-effect
       effect="powerstroke"
       id="path-effect855"
       is_visible="true"
       lpeversion="1"
       offset_points="0,2.32031"
       sort_points="true"
       interpolator_type="CubicBezierJohan"
       interpolator_beta="0.2"
       start_linecap_type="zerowidth"
       linejoin_type="extrp_arc"
       miter_limit="4"
       scale_width="1"
       end_linecap_type="zerowidth" />
    <inkscape:path-effect
       effect="bspline"
       id="path-effect853"
       is_visible="true"
       lpeversion="1"
       weight="33.333333"
       steps="2"
       helper_size="0"
       apply_no_weight="true"
       apply_with_weight="true"
       only_selected="false" />
    <inkscape:path-effect
       effect="powerstroke"
       id="path-effect849"
       is_visible="true"
       lpeversion="1"
       offset_points="0,2.32031"
       sort_points="true"
       interpolator_type="CubicBezierJohan"
       interpolator_beta="0.2"
       start_linecap_type="zerowidth"
       linejoin_type="extrp_arc"
       miter_limit="4"
       scale_width="1"
       end_linecap_type="zerowidth" />
    <inkscape:path-effect
       effect="powerstroke"
       id="path-effect837"
       is_visible="true"
       lpeversion="1"
       offset_points="0,2.32031"
       sort_points="true"
       interpolator_type="CubicBezierJohan"
       interpolator_beta="0.2"
       start_linecap_type="zerowidth"
       linejoin_type="extrp_arc"
       miter_limit="4"
       scale_width="1"
       end_linecap_type="zerowidth" />
  </defs>
  <sodipodi:namedview
     id="base"
     pagecolor="#ffffff"
     bordercolor="#666666"
     borderopacity="1.0"
     inkscape:pageopacity="0.0"
     inkscape:pageshadow="2"
     inkscape:zoom="12.4785"
     inkscape:cx="29.195176"
     inkscape:cy="32"
     inkscape:document-units="mm"
     inkscape:current-layer="layer1"
     inkscape:document-rotation="0"
     showgrid="false"
     inkscape:window-width="1920"
     inkscape:window-height="1020"
     inkscape:window-x="-1"
     inkscape:window-y="-1"
     inkscape:window-maximized="1" />
  <metadata
     id="metadata5">
    <rdf:RDF>
      <cc:Work
         rdf:about="">
        <dc:format>image/svg+xml</dc:format>
        <dc:type
           rdf:resource="http://purl.org/dc/dcmitype/StillImage" />
        <dc:title />
      </cc:Work>
    </rdf:RDF>
  </metadata>
  <g
     inkscape:label="Слой 1"
     inkscape:groupmode="layer"
     id="layer1">
    <path
       style="fill:#15d262;fill-rule:nonzero;stroke:#15d262;stroke-width:4.64793306;stroke-linecap:round;stroke-linejoin:round;stroke-opacity:1;fill-opacity:1;stroke-miterlimit:4;stroke-dasharray:none"
       d="m 83.396127,286.74274 c 0,0 1.348121,1.88849 1.348121,1.88849 5.008011,-3.57502 12.85795,-9.18174 19.522302,-14.4829 5.54564,-4.41128 11.45554,-9.51772 16.21227,-14.91818 2.17282,-2.46687 4.15814,-5.05269 5.79679,-7.73752 1.56471,-2.56369 2.82851,-5.24218 3.6344,-8.02118 0.77854,-2.68466 1.12898,-5.46087 0.91212,-8.31123 -0.21096,-2.77274 -0.95588,-5.57871 -2.32372,-8.40992 -1.3341,-2.76134 -3.24269,-5.51687 -5.57501,-8.27403 -2.29926,-2.71807 -5.02202,-5.45136 -8.03574,-8.20531 -5.96446,-5.45033 -13.04048,-10.95669 -20.161813,-16.5411 -7.137547,-5.59713 -14.168506,-11.15681 -20.109598,-16.74775 -2.996988,-2.82036 -5.682268,-5.61718 -7.944164,-8.39842 -2.296941,-2.82434 -4.137792,-5.60888 -5.427409,-8.36271 -1.314676,-2.80734 -2.056204,-5.58755 -2.326291,-8.33761 -0.277953,-2.83016 -0.05726,-5.63412 0.558902,-8.40474 0.639005,-2.87336 1.703535,-5.70994 3.077113,-8.49167 1.438583,-2.91339 3.218835,-5.7717 5.206569,-8.54642 4.359418,-6.08541 9.868651,-11.96812 15.124301,-17.13929 6.305839,-6.20448 13.776997,-12.833108 18.58288,-17.095591 -4.67653,4.147756 -12.445762,10.959191 -18.700669,16.974501 -5.310502,5.10709 -10.926152,10.92941 -15.414924,16.96217 -2.048796,2.75351 -3.904767,5.60433 -5.426379,8.52591 -1.452604,2.78909 -2.610422,5.6613 -3.340685,8.6003 -0.70453,2.83542 -1.013742,5.74321 -0.800743,8.71082 0.207212,2.88699 0.908307,5.82585 2.215242,8.80549 1.279525,2.91716 3.125903,5.84738 5.419372,8.7951 2.258726,2.90306 4.941581,5.81102 7.923926,8.72865 5.904806,5.77668 12.903238,11.51433 19.934464,17.23423 7.051386,5.7363 13.935326,11.2968 19.699416,16.77801 2.90418,2.76166 5.47339,5.45637 7.6038,8.09319 2.16558,2.68035 3.83782,5.25213 4.95181,7.72378 1.13067,2.50872 1.68494,4.92023 1.79327,7.24142 0.11145,2.38786 -0.24724,4.72154 -0.97957,7.0094 -0.76073,2.37662 -1.92916,4.71678 -3.40758,7.01598 -1.54889,2.40878 -3.43546,4.76835 -5.53718,7.06347 -4.61399,5.03853 -10.37797,9.88009 -15.89811,14.16425 -6.490887,5.03757 -14.556005,10.72428 -19.455604,14.22192 0,0 1.348121,1.88849 1.348121,1.88849 z"
       id="path857"
       inkscape:path-effect="#path-effect859;#path-effect861"
       inkscape:original-d="M 83.396127,286.74274 C 110.14837,267.65332 136.89596,248.55926 163.63891,229.46056 117.09463,206.42331 70.985578,183.38234 24.65195,160.33628 50.262506,137.63025 75.867395,114.92051 101.46815,92.205659" />
    <circle
       style="fill:#464196;fill-opacity:1;stroke:#464196;stroke-width:4.64791;stroke-linecap:round;stroke-linejoin:round;stroke-miterlimit:4;stroke-dasharray:none;stroke-dashoffset:4.21417;stroke-opacity:1"
       id="path863"
       cx="134.06792"
       cy="57.357006"
       r="52.618111" />
    <ellipse
       style="fill:#211c69;fill-opacity:1;stroke:#211c69;stroke-width:4.64791;stroke-linecap:round;stroke-linejoin:round;stroke-miterlimit:4;stroke-dasharray:none;stroke-dashoffset:4.21417;stroke-opacity:1"
       id="path865"
       cx="154.79715"
       cy="36.703423"
       rx="13.157066"
       ry="13.154528" />
    <ellipse
       style="fill:#15d262;fill-opacity:1;stroke:none;stroke-width:4.56103;stroke-linecap:round;stroke-linejoin:bevel;stroke-miterlimit:4;stroke-dasharray:none;stroke-dashoffset:4.21417;stroke-opacity:1"
       id="path885"
       cx="93.609467"
       cy="112.69884"
       rx="54.898849"
       ry="13.188671"
       transform="matrix(0.86047053,0.50950022,-0.5153849,0.85695881,0,0)" />
    <ellipse
       style="fill:#15d262;fill-opacity:1;stroke:none;stroke-width:4.56103;stroke-linecap:round;stroke-linejoin:bevel;stroke-miterlimit:4;stroke-dasharray:none;stroke-dashoffset:4.21417;stroke-opacity:1"
       id="path885-3"
       cx="33.785976"
       cy="186.59686"
       rx="54.898849"
       ry="13.188671"
       transform="matrix(0.87878445,-0.47721891,0.47118555,0.88203411,0,0)" />
    <ellipse
       style="fill:#15d262;fill-opacity:1;stroke:none;stroke-width:2.94978;stroke-linecap:round;stroke-linejoin:bevel;stroke-miterlimit:4;stroke-dasharray:none;stroke-dashoffset:4.21417;stroke-opacity:1"
       id="path885-6"
       cx="95.50248"
       cy="22.388191"
       rx="30.115692"
       ry="10.055989"
       transform="matrix(0.60262089,0.79802761,-0.25968431,0.96569356,0,0)" />
  </g>
</svg>
